<?xml version="1.0" encoding="utf-8"?>
<!-- Generator: Adobe Illustrator 18.1.1, SVG Export Plug-In . SVG Version: 6.00 Build 0)  -->
<svg version="1.1" xmlns="http://www.w3.org/2000/svg" xmlns:xlink="http://www.w3.org/1999/xlink" x="0px" y="0px"
	 viewBox="0 0 18 18" enable-background="new 0 0 18 18" xml:space="preserve">
<g id="map_x5F_04">
	<g>
		<g>
			<path fill="#FFFFFF" d="M9,4.3c2.7,0,4.8,2.2,4.8,4.8S11.7,14,9,14s-4.8-2.2-4.8-4.8S6.3,4.3,9,4.3 M9,2.7
				c-3.6,0-6.5,2.9-6.5,6.5s2.9,6.5,6.5,6.5s6.5-2.9,6.5-6.5S12.6,2.7,9,2.7L9,2.7z"/>
		</g>
		<g>
			<ellipse fill="#FFFFFF" cx="9" cy="9.2" rx="3.1" ry="3"/>
		</g>
		<rect x="8" fill="#FFFFFF" width="2" height="3"/>
		<rect x="8" y="15" fill="#FFFFFF" width="2" height="3"/>
		<rect y="8" fill="#FFFFFF" width="3" height="2"/>
		<rect x="15" y="8" fill="#FFFFFF" width="3" height="2"/>
	</g>
</g>
<g id="map_x5F_03">
</g>
<g id="map_x5F_02">
</g>
<g id="map_x5F_01">
</g>
</svg>
